# xmcd CD database file
#
# Track frame offsets:
#	150
#	15272
#	31244
#	48291
#	62927
#	79564
#	94793
#	110907
#	126210
#	142307
#	158573
#	174463
#	188193
#	204415
#	217217
#	233335
#	250178
#	267701
#	284220
#	297684
#
# Disc length: 4151 seconds
#
# Revision: 4
# Processed by: cddbd v1.5.2PL0 Copyright (c) Steve Scherf et al.
# Submitted via: CDex 1.51
#
DISCID=34103514
DTITLE=Various Artist - Hütten Hits 2005 - CD2
DYEAR=2004
DGENRE=Fastnacht - Stimmung - Apres Ski
TTITLE0=DJ Fichte - Lebt denn dr alte Holzmichl noch ...?
TTITLE1=Trenkwalder - Wir sind alle keine Engel
TTITLE2=Möhre - Caipirinha
TTITLE3=Soul Control - Chocolate (Choco Choco) [Single Version]
TTITLE4=Cordalis - Pisten Party Polizei (Single Mix)
TTITLE5=Whigfield - Was A Time - Remix (Remastered Radio Edit)
TTITLE6=Peter Schilling - Terra Titanic 2004 Remix (Short)
TTITLE7=Laura Branigan - Gloria 2004 (Prodygee and Davis Radio Mix)
TTITLE8=Vanilla Ninja - When The Indians Cry (Radio Edit)
TTITLE9=Ashana - U Gonna Get It (Radio Edit)
TTITLE10=Floorfilla - Kosmiklove (Radio Edit)
TTITLE11=Ballermann Andy and Die Bürokaufmannsfrau - How Do You Do (Radio Mix)
TTITLE12=Jan Wayne feat. Charlene - Here I Am (Send Me An Angel) [Radio Edit]
TTITLE13=Royal Gigolos - No Milk Today (Radio Mix)
TTITLE14=A.T.H.E.N.A. - Zorba Sirtaki Mix Athen 2004 (Gyros Edit)
TTITLE15=Frank Lars - Nur ma' so (Radio Version)
TTITLE16=Jörg Bausch - Cowboy und Indianer 2004 (Country-Mix 2004)
TTITLE17=BIWI and Heidi - Die Has'n (Radio Mix)
TTITLE18=Notis - Opa Opa (Hellas Radio Cut)
TTITLE19=Volkman - Shaddapp You Face (Radio Edit)
EXTD=YEAR: 2004
EXTT0=
EXTT1=
EXTT2=
EXTT3=
EXTT4=
EXTT5=
EXTT6=
EXTT7=
EXTT8=
EXTT9=
EXTT10=
EXTT11=
EXTT12=
EXTT13=
EXTT14=
EXTT15=
EXTT16=
EXTT17=
EXTT18=
EXTT19=
PLAYORDER=
